# xmcd CD database file
#
# Track frame offsets:
#	150
#	22014
#	39803
#	52454
#	70237
#	83061
#	104144
#	121154
#	138977
#	155298
#	175689
#	191560
#
# Disc length: 2754 seconds
#
# Revision: 0
# Processed by: cddbd v1.5.2PL0 Copyright (c) Steve Scherf et al.
# Submitted via: CDex 1.70beta2
#
DISCID=a10ac00c
DTITLE=Wu Hao-En&Daniel Ho Trio - Legends Of Passage
DYEAR=2015
DGENRE=Country
TTITLE0=Open Door
TTITLE1=Missing You
TTITLE2=A Mouse Tale
TTITLE3=Wisdom of Our Ancestors
TTITLE4=Pual Ka Ua
TTITLE5=Someone to Lean on
TTITLE6=Puyuma Wedding Celebration
TTITLE7=Pure Happiness
TTITLE8=Tsou Warriors Song
TTITLE9=Atayal Nostalgia
TTITLE10=Pinapple Mango
TTITLE11=Matang Maidens
EXTD=YEAR: 2015
EXTT0=
EXTT1=
EXTT2=
EXTT3=
EXTT4=
EXTT5=
EXTT6=
EXTT7=
EXTT8=
EXTT9=
EXTT10=
EXTT11=
PLAYORDER=
